<svg version="1" xmlns="http://www.w3.org/2000/svg" width="173.333" height="173.333" viewBox="0 0 130.000000 130.000000"><path d="M50.6 7.7c-.1.1-2 .5-4.2.9-2.1.3-4.8 1.1-5.9 1.7-1.1.6-2 .9-2 .7 0-.2-1.9.7-4.3 1.9-6 3.1-17.3 14.5-21.3 21.5l-3.3 6-.1 14.3c0 7.9.3 14.3.6 14.3s.6.6.6 1.2c.4 15.5 7.5 40.1 12.6 43.7 1.1.8 2.7 2.2 3.6 3.3.8 1 2.1 1.8 2.7 1.8.7 0 1.4.5 1.6 1.1.2.5 1 1.1 1.8 1.3 1.4.3 2.9.8 7.5 2.5 2.6 1 18.1.8 19.1-.2.4-.4 1.5-.7 2.5-.7s4-.7 6.6-1.6c5.8-1.8 6.6-2.1 7.5-2.3.4-.1 2.2-.7 4-1.2 1.8-.6 4.4-1.2 5.8-1.5 12.8-2.6 18.9-5.2 23.3-9.9 2.1-2.4 8.8-14.2 9.3-16.5.4-2.2 1.8-6.7 2.3-7.5.3-.6.8-1.7 1-2.5.8-2.5.6-20.3-.2-24-.4-1.9-.9-4-1-4.7-.2-.7-.6-1.6-1-1.9-.4-.4-.7-1.6-.7-2.6s-.5-1.8-1.1-1.8c-.5 0-.7-.5-.4-1 .3-.6.1-1-.6-1s-.9-.3-.6-.6c.4-.4-.1-1.9-1.1-3.3s-2.4-3.8-3.1-5.3c-.8-1.5-2.2-3.7-3.3-4.7-1-1.1-1.8-2.3-1.8-2.7 0-.4-1.3-2-3-3.5-1.6-1.6-2.7-2.9-2.4-2.9.3 0-1.6-1.9-4.3-4.1C93 12.1 87.8 9.2 84 8.5c-.8-.2-1.5-.4-1.5-.5 0-.1-3-.3-6.7-.4-3.8-.1-6.8.2-6.8.7 0 .4-.5.5-1.2.1-1-.7-16.6-1.3-17.2-.7z"/></svg>